{"accessors" : [{"bufferView" : 0, "byteOffset" : 0, "componentType" : 5123, "count" : 30612, "type" : "SCALAR", "max" : [30611], "min" : [0]}, {"bufferView" : 1, "byteOffset" : 0, "componentType" : 5126, "count" : 30612, "type" : "VEC3", "max" : [0.5735968351364136, 0.20027638971805573, 0.2639005482196808], "min" : [-0.5311203002929688, -0.20053845643997192, -0.0028561362996697426]}, {"bufferView" : 1, "byteOffset" : 12, "componentType" : 5126, "count" : 30612, "type" : "VEC3", "max" : [1.0000044107437134, 1.0000044107437134, 1.0000044107437134], "min" : [-1.0000044107437134, -1.0000044107437134, -1.0000044107437134]}, {"bufferView" : 1, "byteOffset" : 24, "componentType" : 5126, "count" : 30612, "type" : "VEC2", "max" : [0.9900000095367432, -0.02065899968147278], "min" : [0.009999999776482582, -0.9900000095367432]}], "asset" : {"generator" : "Aspose.3D 21.1", "version" : "2.0"}, "buffers" : [{"uri" : "buffer.bin", "byteLength" : 1040816}], "bufferViews" : [{"buffer" : 0, "byteOffset" : 0, "byteLength" : 61224, "target" : 34963}, {"buffer" : 0, "byteOffset" : 61228, "byteLength" : 979584, "byteStride" : 32, "target" : 34962}], "materials" : [{"pbrMetallicRoughness" : {"baseColorFactor" : [0, 0, 0, 1], "metallicFactor" : 0, "roughnessFactor" : 0}, "emissiveFactor" : [0, 0, 0], "alphaMode" : "OPAQUE", "doubleSided" : false}], "meshes" : [{"primitives" : [{"attributes" : {"POSITION" : 1, "NORMAL" : 2, "TEXCOORD_0" : 3}, "indices" : 0, "material" : 0, "mode" : 4}]}], "nodes" : [{"matrix" : [100, 0, 0, 0, 0, -1.6292067961387602E-05, -99.99999999999868, 0, 0, 99.99999999999868, -1.6292067961387602E-05, 0, 0, 0, 0, 1], "mesh" : 0, "name" : "Sled01Old"}], "scene" : 0, "scenes" : [{"nodes" : [0]}]}