# Blender v2.91.0 OBJ File: 'slope.blend'
# www.blender.org
mtllib slope.mtl
o Cube
v 1.000000 0.982143 1.000000
v 1.000000 0.000000 -1.000000
v 1.000000 0.000000 1.000000
v 1.000000 0.000000 -0.500000
v 1.000000 0.437500 -1.000000
v 1.000000 0.937500 0.875000
v 1.000000 0.000000 -1.000000
v 1.000000 0.000000 1.000000
v 1.000000 0.000000 -0.375000
v 1.000000 0.000000 -0.500000
v 1.000000 0.250000 -0.500000
v 1.000000 0.312500 -0.375000
v 1.000000 0.000000 -0.750000
v 1.000000 0.312500 -0.750000
v 0.002329 0.982143 1.000000
v 0.002329 0.937500 0.875000
v 0.002329 0.000000 1.000000
v 1.000000 0.000000 -0.625000
v 1.000000 0.250000 -0.625000
v 0.002329 0.000000 -0.500000
v 0.002329 0.437500 -1.000000
v 1.000000 0.000000 0.875000
v 1.000000 0.000000 -0.875000
v 1.000000 0.437500 -0.875000
v 0.002329 0.000000 -1.000000
v 0.002329 0.000000 -1.000000
v 0.002329 0.000000 1.000000
v 0.002329 0.000000 -0.375000
v 0.002329 0.000000 -0.500000
v 0.002329 0.250000 -0.500000
v 0.002329 0.312500 -0.375000
v 0.002329 0.000000 -0.750000
v 0.002329 0.312500 -0.750000
v 0.002329 0.000000 -0.625000
v 0.002329 0.250000 -0.625000
v 0.002329 0.000000 0.875000
v 0.002329 0.000000 -0.875000
v 0.002329 0.437500 -0.875000
v 0.002329 0.000000 -0.375000
v 0.002329 0.312500 -0.375000
vt 0.500000 0.531250
vt 0.515625 0.531250
vt 0.515625 0.546875
vt 0.500000 0.546875
vt 0.515625 0.562500
vt 0.500000 0.562500
vt 0.500000 0.515625
vt 0.500000 0.531250
vt 0.515625 0.531250
vt 0.515625 0.515625
vt 0.500000 0.546875
vt 0.500000 0.562500
vt 0.515625 0.562500
vt 0.515625 0.546875
vt 0.500000 0.734375
vt 0.500000 0.750000
vt 0.515625 0.750000
vt 0.515625 0.734375
vt 0.500000 0.734375
vt 0.515625 0.734375
vt 0.515625 0.750000
vt 0.500000 0.750000
vt 0.500000 0.578125
vt 0.515625 0.578125
vt 0.515625 0.578125
vt 0.500000 0.578125
vt 0.500000 0.515625
vt 0.515625 0.515625
vt 0.000000 0.000000
vt 0.000000 0.000000
vt 0.000000 0.000000
vt 0.000000 0.000000
vt 0.000000 0.000000
vt 0.000000 0.000000
vt 0.000000 0.000000
vt 0.000000 0.000000
vt 0.000000 0.000000
vt 0.000000 0.000000
vt 0.000000 0.000000
vt 0.000000 0.000000
vt 0.000000 0.000000
vt 0.000000 0.000000
vt 0.515625 0.578125
vt 0.500000 0.578125
vt 0.000000 0.000000
vt 0.000000 0.000000
vn 1.0000 0.0000 0.0000
vn -1.0000 0.0000 0.0000
vn 0.0000 -1.0000 0.0000
vn 0.0000 -0.7071 -0.7071
vn 0.0000 -0.8944 -0.4472
vn 0.0000 0.0000 -1.0000
vn 0.0000 -0.9417 0.3363
vn 0.0000 -0.8944 0.4472
vn 0.0000 0.0000 1.0000
usemtl Material
s off
f 32/1/1 33/2/1 35/3/1 34/4/1
f 34/4/1 35/3/1 30/5/1 29/6/1
f 23/7/2 13/8/2 14/9/2 24/10/2
f 18/11/2 10/12/2 11/13/2 19/14/2
f 22/15/2 8/16/2 1/17/2 6/18/2
f 13/8/2 18/11/2 19/14/2 14/9/2
f 36/19/1 16/20/1 15/21/1 27/22/1
f 10/12/2 9/23/2 12/24/2 11/13/2
f 29/6/1 30/5/1 31/25/1 28/26/1
f 37/27/1 38/28/1 33/2/1 32/1/1
f 19/14/3 11/13/3 30/5/3 35/3/3
f 24/10/4 14/9/4 33/2/4 38/28/4
f 14/9/5 19/14/5 35/3/5 33/2/5
f 5/29/6 2/30/6 25/31/6 21/32/6
f 5/29/3 24/33/3 38/34/3 21/32/3
f 6/18/7 1/17/7 15/21/7 16/20/7
f 1/35/6 3/36/6 17/37/6 15/38/6
f 11/13/8 12/24/8 31/25/8 30/5/8
f 1/17/6 8/16/6 27/22/6 15/21/6
f 12/39/8 6/40/8 16/41/8 31/42/8
f 28/26/9 31/25/9 40/43/9 39/44/9
f 6/18/2 12/24/2 9/23/2 22/15/2
f 28/45/1 31/42/1 16/41/1 36/46/1
f 38/28/1 37/27/1 25/31/1 21/32/1
f 2/30/1 5/29/1 24/10/1 23/7/1
l 2 4
l 25 20
l 7 23
l 26 37
l 26 7
